<svg width="16" height="16" viewBox="0 0 16 16" fill="none" xmlns="http://www.w3.org/2000/svg">
<path fill-rule="evenodd" clip-rule="evenodd" d="M7.99998 14.4C11.5346 14.4 14.4 11.5346 14.4 8.00001C14.4 4.46538 11.5346 1.60001 7.99998 1.60001C4.46535 1.60001 1.59998 4.46538 1.59998 8.00001C1.59998 11.5346 4.46535 14.4 7.99998 14.4ZM6.96566 5.83432C6.65324 5.5219 6.14671 5.5219 5.83429 5.83432C5.52187 6.14674 5.52187 6.65327 5.83429 6.96569L6.8686 8.00001L5.83429 9.03432C5.52187 9.34674 5.52187 9.85327 5.83429 10.1657C6.14671 10.4781 6.65324 10.4781 6.96566 10.1657L7.99998 9.13138L9.03429 10.1657C9.34671 10.4781 9.85324 10.4781 10.1657 10.1657C10.4781 9.85327 10.4781 9.34674 10.1657 9.03432L9.13135 8.00001L10.1657 6.96569C10.4781 6.65327 10.4781 6.14674 10.1657 5.83432C9.85324 5.5219 9.34671 5.5219 9.03429 5.83432L7.99998 6.86864L6.96566 5.83432Z" fill="url(#paint0_linear_69_243)"/>
<defs>
<linearGradient id="paint0_linear_69_243" x1="7.99998" y1="1.60001" x2="7.99998" y2="14.4" gradientUnits="userSpaceOnUse">
<stop stop-color="#885DF1"/>
<stop offset="1" stop-color="#6610F2"/>
</linearGradient>
</defs>
</svg>
